%TF.GenerationSoftware,KiCad,Pcbnew,8.0.8*%
%TF.CreationDate,2025-02-10T19:39:04-08:00*%
%TF.ProjectId,Lidar Power Adapter,4c696461-7220-4506-9f77-657220416461,rev?*%
%TF.SameCoordinates,Original*%
%TF.FileFunction,Copper,L1,Top*%
%TF.FilePolarity,Positive*%
%FSLAX46Y46*%
G04 Gerber Fmt 4.6, Leading zero omitted, Abs format (unit mm)*
G04 Created by KiCad (PCBNEW 8.0.8) date 2025-02-10 19:39:04*
%MOMM*%
%LPD*%
G01*
G04 APERTURE LIST*
G04 Aperture macros list*
%AMRoundRect*
0 Rectangle with rounded corners*
0 $1 Rounding radius*
0 $2 $3 $4 $5 $6 $7 $8 $9 X,Y pos of 4 corners*
0 Add a 4 corners polygon primitive as box body*
4,1,4,$2,$3,$4,$5,$6,$7,$8,$9,$2,$3,0*
0 Add four circle primitives for the rounded corners*
1,1,$1+$1,$2,$3*
1,1,$1+$1,$4,$5*
1,1,$1+$1,$6,$7*
1,1,$1+$1,$8,$9*
0 Add four rect primitives between the rounded corners*
20,1,$1+$1,$2,$3,$4,$5,0*
20,1,$1+$1,$4,$5,$6,$7,0*
20,1,$1+$1,$6,$7,$8,$9,0*
20,1,$1+$1,$8,$9,$2,$3,0*%
G04 Aperture macros list end*
%TA.AperFunction,SMDPad,CuDef*%
%ADD10RoundRect,0.150000X-0.150000X-0.625000X0.150000X-0.625000X0.150000X0.625000X-0.150000X0.625000X0*%
%TD*%
%TA.AperFunction,SMDPad,CuDef*%
%ADD11RoundRect,0.250000X-0.350000X-0.650000X0.350000X-0.650000X0.350000X0.650000X-0.350000X0.650000X0*%
%TD*%
%TA.AperFunction,ComponentPad*%
%ADD12R,2.600000X2.600000*%
%TD*%
%TA.AperFunction,ComponentPad*%
%ADD13C,2.600000*%
%TD*%
%TA.AperFunction,Conductor*%
%ADD14C,0.200000*%
%TD*%
G04 APERTURE END LIST*
D10*
%TO.P,J1,1,1*%
%TO.N,Net-(J2-Pin_1)*%
X146200000Y-68097800D03*
%TO.P,J1,2,2*%
%TO.N,Net-(J2-Pin_2)*%
X147200000Y-68097800D03*
%TO.P,J1,3,3*%
%TO.N,Net-(J2-Pin_3)*%
X148200000Y-68097800D03*
%TO.P,J1,4,4*%
%TO.N,Net-(J2-Pin_4)*%
X149200000Y-68097800D03*
%TO.P,J1,5,5*%
%TO.N,Net-(J2-Pin_5)*%
X150200000Y-68097800D03*
%TO.P,J1,6,6*%
%TO.N,Net-(J2-Pin_6)*%
X151200000Y-68097800D03*
D11*
%TO.P,J1,MP*%
%TO.N,N/C*%
X144900000Y-65572800D03*
X152500000Y-65572800D03*
%TD*%
D12*
%TO.P,J2,1,Pin_1*%
%TO.N,Net-(J2-Pin_1)*%
X136000000Y-77500000D03*
D13*
%TO.P,J2,2,Pin_2*%
%TO.N,Net-(J2-Pin_2)*%
X141000000Y-77500000D03*
%TO.P,J2,3,Pin_3*%
%TO.N,Net-(J2-Pin_3)*%
X146000000Y-77500000D03*
%TO.P,J2,4,Pin_4*%
%TO.N,Net-(J2-Pin_4)*%
X151000000Y-77500000D03*
%TO.P,J2,5,Pin_5*%
%TO.N,Net-(J2-Pin_5)*%
X156000000Y-77500000D03*
%TO.P,J2,6,Pin_6*%
%TO.N,Net-(J2-Pin_6)*%
X161000000Y-77500000D03*
%TD*%
D14*
%TO.N,Net-(J2-Pin_4)*%
X149200000Y-75700000D02*
X149200000Y-68097800D01*
X149420000Y-68317800D02*
X149200000Y-68097800D01*
X151000000Y-77500000D02*
X149200000Y-75700000D01*
%TO.N,Net-(J2-Pin_2)*%
X147200000Y-71300000D02*
X147200000Y-68097800D01*
X141000000Y-77500000D02*
X147200000Y-71300000D01*
%TO.N,Net-(J2-Pin_6)*%
X151597800Y-68097800D02*
X151200000Y-68097800D01*
X161000000Y-77500000D02*
X151597800Y-68097800D01*
%TO.N,Net-(J2-Pin_1)*%
X136797800Y-77500000D02*
X146200000Y-68097800D01*
X136000000Y-77500000D02*
X136797800Y-77500000D01*
%TO.N,Net-(J2-Pin_5)*%
X150200000Y-71700000D02*
X150200000Y-68097800D01*
X156000000Y-77500000D02*
X150200000Y-71700000D01*
%TO.N,Net-(J2-Pin_3)*%
X146000000Y-77500000D02*
X148200000Y-75300000D01*
X148200000Y-75300000D02*
X148200000Y-68097800D01*
%TD*%
M02*
